<svg width="29" height="28" viewBox="0 0 29 28" fill="none" xmlns="http://www.w3.org/2000/svg">
<path d="M25.8207 12.1333H25.3513V2.89334C25.3513 2.12599 25.0447 1.39006 24.499 0.847455C23.9533 0.304851 23.2131 1.96097e-05 22.4413 1.96097e-05H20.0946C19.7984 -0.00121523 19.5049 0.055881 19.231 0.168014C18.9571 0.280147 18.7082 0.445096 18.4988 0.653345C18.2893 0.861594 18.1234 1.10902 18.0107 1.38135C17.8979 1.65367 17.8405 1.94551 17.8417 2.24001V2.93068C17.0377 3.13707 16.3252 3.60261 15.8157 4.25448C15.3061 4.90634 15.0283 5.70775 15.0256 6.53334V7.46667C15.0256 7.7142 15.1245 7.9516 15.3005 8.12663C15.4766 8.30166 15.7153 8.4 15.9643 8.4H21.5965C21.8455 8.4 22.0842 8.30166 22.2603 8.12663C22.4363 7.9516 22.5352 7.7142 22.5352 7.46667V6.53334C22.5325 5.70775 22.2547 4.90634 21.7451 4.25448C21.2356 3.60261 20.5231 3.13707 19.7191 2.93068V2.24001C19.7191 2.141 19.7587 2.04604 19.8291 1.97603C19.8995 1.90601 19.995 1.86668 20.0946 1.86668H22.4413C22.7144 1.86912 22.9757 1.97806 23.1688 2.17008C23.3619 2.36209 23.4715 2.62181 23.4739 2.89334V12.1333H2.35314C1.86015 12.13 1.37873 12.2818 0.977724 12.5669C0.576716 12.852 0.276653 13.256 0.12044 13.7209C-0.0357724 14.1858 -0.0401344 14.6879 0.107978 15.1555C0.25609 15.623 0.549092 16.032 0.945087 16.324V19.124C0.949214 20.3894 1.34642 21.6227 2.08237 22.6552C2.81832 23.6877 3.85709 24.4689 5.0566 24.892L3.92077 26.5533C3.78491 26.759 3.7363 27.0098 3.78553 27.2511C3.83476 27.4923 3.97783 27.7044 4.1836 27.8413C4.33478 27.9465 4.51534 28.002 4.69989 27.9999C4.8545 27.9991 5.00652 27.9604 5.14244 27.8871C5.27836 27.8139 5.39398 27.7083 5.47901 27.5799L7.08419 25.2H21.0896L22.6948 27.5799C22.7798 27.7083 22.8954 27.8139 23.0314 27.8871C23.1673 27.9604 23.3193 27.9991 23.4739 27.9999C23.6585 28.002 23.839 27.9465 23.9902 27.8413C24.196 27.7044 24.339 27.4923 24.3883 27.2511C24.4375 27.0098 24.3889 26.759 24.253 26.5533L23.1172 24.8453C24.3167 24.4222 25.3555 23.641 26.0914 22.6085C26.8274 21.5761 27.2246 20.3428 27.2287 19.0773V16.2773C27.6057 15.9798 27.8812 15.5739 28.0175 15.115C28.1537 14.656 28.1442 14.1664 27.9902 13.7131C27.8361 13.2597 27.5451 12.8647 27.1568 12.5819C26.7685 12.2992 26.3019 12.1425 25.8207 12.1333ZM20.6578 6.53334H16.903C16.903 6.03827 17.1008 5.56347 17.4529 5.21341C17.805 4.86334 18.2825 4.66667 18.7804 4.66667C19.2783 4.66667 19.7558 4.86334 20.1079 5.21341C20.46 5.56347 20.6578 6.03827 20.6578 6.53334ZM2.35314 14H25.8207C25.9451 14 26.0645 14.0491 26.1525 14.1367C26.2406 14.2242 26.29 14.3429 26.29 14.4666C26.29 14.5904 26.2406 14.7091 26.1525 14.7966C26.0645 14.8841 25.9451 14.9333 25.8207 14.9333H2.35314C2.22866 14.9333 2.10928 14.8841 2.02126 14.7966C1.93324 14.7091 1.88379 14.5904 1.88379 14.4666C1.88379 14.3429 1.93324 14.2242 2.02126 14.1367C2.10928 14.0491 2.22866 14 2.35314 14ZM25.3513 19.0773C25.3488 20.2053 24.8971 21.2864 24.0948 22.084C23.2926 22.8816 22.2053 23.3308 21.0708 23.3333H7.10296C5.96847 23.3308 4.88116 22.8816 4.07895 22.084C3.27674 21.2864 2.82497 20.2053 2.82249 19.0773V16.8H25.3513V19.0773Z" fill="white"/>
</svg>
