<svg width="33" height="25" viewBox="0 0 33 25" fill="none" xmlns="http://www.w3.org/2000/svg">
<path d="M1.13339 16.8501H31.8344V15.6819C31.8344 15.3992 31.7753 15.1366 31.6705 14.9014C31.5577 14.6513 31.3912 14.4287 31.1844 14.236C31.0582 14.1185 30.9158 14.0109 30.7628 13.9158C30.607 13.8183 30.4405 13.7332 30.2659 13.6607C29.7959 13.5656 29.3286 13.4756 28.8639 13.3905C28.3966 13.3055 27.9266 13.2254 27.4539 13.1504C27.4324 13.1479 27.4163 13.1454 27.3948 13.1404C27.1558 13.1029 26.9275 13.0678 26.7099 13.0353C26.4924 13.0028 26.2614 12.9703 26.0197 12.9353H26.0143C24.3706 12.7401 22.7323 12.5901 21.0967 12.49C19.4584 12.3899 17.8281 12.3399 16.2086 12.3374C15.2471 12.3374 14.2883 12.3524 13.3295 12.3874C12.376 12.4225 11.4172 12.4725 10.4584 12.5425H10.453C9.55595 12.6201 8.66159 12.7176 7.76455 12.8302C6.87019 12.9428 5.97314 13.0753 5.07072 13.2229L4.97135 13.2454C4.95255 13.2505 4.93375 13.253 4.91764 13.253C4.90152 13.2555 4.88541 13.2555 4.86929 13.2555C4.44763 13.3255 4.01522 13.403 3.56938 13.4856C3.13697 13.5656 2.70457 13.6507 2.27484 13.7382C2.16741 13.7933 2.06535 13.8558 1.96867 13.9209C1.87198 13.9884 1.77798 14.0609 1.69472 14.1385C1.51477 14.3061 1.37243 14.4987 1.27574 14.7138C1.18442 14.9164 1.13339 15.1416 1.13339 15.3867V16.8501ZM3.81379 0H28.7887C29.1137 0 29.4252 0.060036 29.7099 0.170102C30.0054 0.285171 30.2713 0.452772 30.4942 0.657895C30.7171 0.865519 30.897 1.11317 31.0179 1.38833C31.1361 1.65349 31.2005 1.94367 31.2005 2.24635V12.9253C31.3375 13.0003 31.4718 13.0828 31.5953 13.1729C31.735 13.273 31.8666 13.378 31.9875 13.4906C32.299 13.7808 32.5515 14.1185 32.7207 14.4987C32.8818 14.8564 32.9705 15.2542 32.9705 15.6844V17.2078C32.9785 17.2328 32.9866 17.2579 32.9919 17.2829V17.2879C32.9973 17.3204 33 17.3504 33 17.3804C33 17.4129 32.9973 17.4455 32.9893 17.478C32.9839 17.503 32.9758 17.528 32.9678 17.553V24.4722C32.9678 24.6173 32.9033 24.7498 32.8013 24.8449C32.6992 24.94 32.5568 25 32.4011 25H31.2328C31.1012 25 30.9803 24.9575 30.8836 24.8874C30.7869 24.8174 30.7144 24.7173 30.6849 24.6023C30.47 24.0269 30.2525 23.5716 30.0188 23.2164C29.7878 22.8662 29.5407 22.6161 29.256 22.4385C28.9687 22.2609 28.6249 22.1483 28.2086 22.0807C27.7842 22.0107 27.2901 21.9882 26.7019 21.9907L5.28021 22.0157H5.26947C4.84781 22.0082 4.50134 22.0582 4.21128 22.1633C3.9239 22.2684 3.69024 22.426 3.49687 22.6286C3.27932 22.8537 3.09669 23.1414 2.93017 23.4766C2.76097 23.8193 2.60788 24.2095 2.45479 24.6373C2.41719 24.7473 2.34199 24.8349 2.24799 24.8974C2.15936 24.9575 2.05192 24.9925 1.94181 24.9975C1.93375 25 1.92569 25 1.91764 25H0.566696C0.410922 25 0.268577 24.94 0.166517 24.8449C0.0644584 24.7498 0 24.6173 0 24.4722V15.3892C0 14.9965 0.0805729 14.6363 0.225604 14.3111C0.381379 13.9659 0.609669 13.6582 0.89436 13.393C0.974933 13.318 1.06356 13.2429 1.15756 13.1729C1.23814 13.1129 1.31871 13.0553 1.40466 13.0028V2.22383C1.40466 1.92115 1.46911 1.63348 1.58729 1.37332C1.71083 1.10066 1.89078 0.855513 2.1137 0.65039C2.33662 0.445267 2.60251 0.28267 2.89525 0.170102C3.17995 0.060036 3.48881 0 3.81379 0ZM28.7887 1.05563H3.81379C3.63921 1.05563 3.47269 1.08815 3.31961 1.14569C3.16115 1.20572 3.02149 1.29328 2.90331 1.40084C2.78782 1.5059 2.69382 1.63598 2.62936 1.77607C2.57028 1.91365 2.53805 2.06374 2.53805 2.22383V12.495C2.61862 12.47 2.69919 12.45 2.78245 12.43C2.91406 12.3974 3.04566 12.3699 3.17726 12.3499C3.35989 12.3199 3.55864 12.2874 3.7735 12.2524C3.93465 12.2273 4.10653 12.1998 4.2838 12.1748V9.55323C4.2838 9.15799 4.36974 8.78027 4.52283 8.43506C4.68397 8.07485 4.91764 7.75215 5.2077 7.48199C5.49776 7.21183 5.84423 6.9942 6.23098 6.84411C6.60161 6.70152 7.00716 6.62147 7.43151 6.62147H12.7547C13.1791 6.62147 13.5846 6.70152 13.9552 6.84411C14.342 6.9942 14.6885 7.21183 14.9785 7.48199C15.2686 7.75215 15.5022 8.07485 15.6634 8.43506C15.8165 8.78027 15.9024 9.15799 15.9024 9.55323V11.2267C16.0904 11.2242 16.2784 11.2242 16.4691 11.2242V9.55323C16.4691 9.15799 16.5551 8.78027 16.7081 8.43506C16.8693 8.07485 17.103 7.75215 17.393 7.48199C17.6831 7.21183 18.0295 6.9942 18.4163 6.84411C18.7869 6.70152 19.1925 6.62147 19.6168 6.62147H24.94C25.3644 6.62147 25.7699 6.70152 26.1406 6.84411C26.5273 6.9942 26.8738 7.21183 27.1638 7.48199C27.4539 7.75215 27.6876 8.07485 27.8487 8.43506C28.0018 8.78027 28.0877 9.15799 28.0877 9.55323V12.1398C28.2892 12.1673 28.504 12.1998 28.735 12.2348C28.9902 12.2724 29.2346 12.3099 29.4709 12.3474C29.5918 12.3674 29.7153 12.3899 29.8389 12.4174C29.9167 12.435 29.9919 12.4525 30.0645 12.4725V2.24635C30.0645 2.08625 30.0295 1.93366 29.9678 1.79358C29.9033 1.64849 29.8066 1.51841 29.6884 1.40584C29.5703 1.29578 29.4279 1.20572 29.2748 1.14569C29.1244 1.08815 28.9606 1.05563 28.7887 1.05563ZM11.6052 11.3968C12.145 11.3593 12.6876 11.3268 13.2381 11.3018C13.7457 11.2768 14.2587 11.2593 14.7717 11.2467V9.55323C14.7717 9.30058 14.718 9.05793 14.6186 8.8378C14.5166 8.60767 14.3662 8.40254 14.1782 8.22744C13.9928 8.05483 13.7699 7.91475 13.5228 7.81719C13.2865 7.72463 13.026 7.6746 12.7547 7.6746H7.43151C7.16025 7.6746 6.89973 7.72463 6.66338 7.81719C6.41629 7.91225 6.19606 8.05233 6.00806 8.22744C5.82274 8.40004 5.67234 8.60767 5.56759 8.8378C5.46822 9.05793 5.4145 9.30058 5.4145 9.55323V12.0072C5.8496 11.9472 6.29006 11.8921 6.74127 11.8371C7.22739 11.7796 7.71083 11.727 8.1889 11.677C8.37422 11.657 8.57296 11.6345 8.77977 11.6145C8.97314 11.5945 9.17457 11.5769 9.38944 11.5569C9.7547 11.5244 10.1173 11.4944 10.4745 11.4669C10.8424 11.4444 11.2184 11.4194 11.6052 11.3968ZM17.6025 11.2317C17.9275 11.2367 18.2525 11.2442 18.5774 11.2543C18.9373 11.2643 19.2972 11.2793 19.6544 11.2943H19.6571C20.2453 11.3143 20.8201 11.3393 21.3787 11.3693C21.9373 11.3993 22.4825 11.4369 23.0036 11.4794C23.761 11.5419 24.4942 11.617 25.1898 11.7045C25.8129 11.7846 26.4038 11.8746 26.957 11.9747V9.55323C26.957 9.30058 26.9033 9.05793 26.8039 8.8378C26.7019 8.60767 26.5515 8.40254 26.3635 8.22744C26.1782 8.05483 25.9552 7.91475 25.7081 7.81719C25.4718 7.72463 25.2113 7.6746 24.94 7.6746H19.6195C19.3483 7.6746 19.0877 7.72463 18.8514 7.81719C18.6043 7.91225 18.3841 8.05233 18.1961 8.22744C18.0107 8.40004 17.8603 8.60767 17.7556 8.8378C17.6562 9.05793 17.6025 9.30058 17.6025 9.55323V11.2317ZM31.8371 17.9082H1.13339V23.9444H1.51746C1.66786 23.5491 1.82363 23.1814 1.99821 22.8537C2.18621 22.5035 2.39839 22.1933 2.65622 21.9257C2.9624 21.6055 3.32229 21.3578 3.7547 21.1927C4.18711 21.0301 4.69203 20.9476 5.29902 20.9601L26.7019 20.9351C27.3921 20.9351 27.983 20.9651 28.4987 21.0576C29.0224 21.1502 29.4736 21.3078 29.8791 21.5579C30.2551 21.7906 30.5774 22.0983 30.8675 22.501C31.1441 22.8862 31.3912 23.359 31.6276 23.9419H31.8317V17.9082H31.8371Z" fill="white"/>
</svg>
