<svg width="29" height="21" viewBox="0 0 29 21" fill="none" xmlns="http://www.w3.org/2000/svg">
<path d="M17.7955 5.25C16.6223 5.25 15.4754 5.5964 14.4999 6.24538C13.5244 6.89437 12.7641 7.8168 12.3152 8.89603C11.8662 9.97525 11.7487 11.1628 11.9776 12.3085C12.2065 13.4542 12.7714 14.5066 13.601 15.3326C14.4306 16.1586 15.4876 16.7211 16.6382 16.949C17.7889 17.1769 18.9816 17.0599 20.0655 16.6129C21.1494 16.1659 22.0758 15.4089 22.7276 14.4376C23.3794 13.4663 23.7273 12.3244 23.7273 11.1562C23.7255 9.59035 23.1 8.08908 21.988 6.98182C20.8759 5.87456 19.3681 5.25174 17.7955 5.25ZM17.7955 15.75C16.883 15.75 15.991 15.4806 15.2323 14.9758C14.4735 14.471 13.8822 13.7536 13.533 12.9142C13.1838 12.0748 13.0925 11.1512 13.2705 10.2601C13.4485 9.36895 13.8879 8.55043 14.5331 7.90798C15.1784 7.26553 16.0004 6.82802 16.8954 6.65077C17.7903 6.47352 18.718 6.56449 19.561 6.91218C20.404 7.25987 21.1246 7.84866 21.6316 8.6041C22.1385 9.35954 22.4091 10.2477 22.4091 11.1562C22.4077 12.3742 21.9212 13.5418 21.0562 14.403C20.1913 15.2642 19.0186 15.7486 17.7955 15.75ZM9.22727 6.5625H3.95455V5.25H9.22727V6.5625ZM26.3636 21H2.63636C1.93737 20.9993 1.26721 20.7225 0.772944 20.2304C0.278681 19.7383 0.000697947 19.071 0 18.375V5.25C0.000697947 4.55402 0.278681 3.88674 0.772944 3.39461C1.26721 2.90248 1.93737 2.62569 2.63636 2.625H3.95455V1.3125H9.22727V2.625H11.2045C11.3793 2.625 11.547 2.55586 11.6706 2.43279C11.7942 2.30972 11.8636 2.1428 11.8636 1.96875C11.8643 1.44682 12.0729 0.946462 12.4435 0.577401C12.8142 0.208339 13.3167 0.000694521 13.8409 0H21.75C22.2742 0.000694521 22.7767 0.208339 23.1474 0.577401C23.518 0.946462 23.7266 1.44682 23.7273 1.96875C23.7273 2.1428 23.7967 2.30972 23.9203 2.43279C24.0439 2.55586 24.2116 2.625 24.3864 2.625H26.3636C27.0626 2.62569 27.7328 2.90248 28.2271 3.39461C28.7213 3.88674 28.9993 4.55402 29 5.25V18.375C28.9993 19.071 28.7213 19.7383 28.2271 20.2304C27.7328 20.7225 27.0626 20.9993 26.3636 21ZM2.63636 3.9375C2.28687 3.93785 1.95179 4.07624 1.70465 4.32231C1.45752 4.56837 1.31853 4.90201 1.31818 5.25V18.375C1.31853 18.723 1.45752 19.0566 1.70465 19.3027C1.95179 19.5488 2.28687 19.6872 2.63636 19.6875H26.3636C26.7131 19.6872 27.0482 19.5488 27.2953 19.3027C27.5425 19.0566 27.6815 18.723 27.6818 18.375V5.25C27.6815 4.90201 27.5425 4.56837 27.2953 4.32231C27.0482 4.07624 26.7131 3.93785 26.3636 3.9375H24.3864C23.8622 3.93681 23.3597 3.72916 22.989 3.3601C22.6183 2.99104 22.4098 2.49068 22.4091 1.96875C22.4091 1.7947 22.3397 1.62778 22.216 1.50471C22.0924 1.38164 21.9248 1.3125 21.75 1.3125H13.8409C13.6661 1.3125 13.4985 1.38164 13.3749 1.50471C13.2513 1.62778 13.1818 1.7947 13.1818 1.96875C13.1811 2.49068 12.9726 2.99104 12.6019 3.3601C12.2313 3.72916 11.7287 3.93681 11.2045 3.9375H7.90909V2.625H5.27273V3.9375H2.63636Z" fill="white"/>
</svg>
