<svg width="21" height="20" viewBox="0 0 21 20" fill="none" xmlns="http://www.w3.org/2000/svg">
<path d="M19.4243 2.22298C18.8496 1.52565 18.1278 0.964823 17.3109 0.580906C16.494 0.196988 15.6024 -0.000463239 14.7002 0.00277565C13.1566 -0.0440929 11.6538 0.504075 10.501 1.5345C9.34815 0.504075 7.84534 -0.0440929 6.30174 0.00277565C5.39958 -0.000463239 4.50794 0.196988 3.69105 0.580906C2.87415 0.964823 2.15234 1.52565 1.5776 2.22298C0.577136 3.43994 -0.469523 5.6433 0.2244 9.23416C1.33195 14.9684 9.63698 19.6741 9.98762 19.8667C10.1439 19.9541 10.3199 20 10.4989 20C10.6778 20 10.8538 19.9541 11.0101 19.8667C11.3629 19.6699 19.6679 14.9642 20.7733 9.23416C21.4715 5.6433 20.4248 3.43994 19.4243 2.22298ZM18.7168 8.83412C17.9336 12.8882 12.2416 16.6591 10.501 17.7307C8.04862 16.2464 3.00324 12.5197 2.29042 8.83412C1.75187 6.0486 2.48884 4.43056 3.20271 3.56311C3.58022 3.10634 4.05387 2.73901 4.58967 2.48748C5.12546 2.23594 5.71014 2.10643 6.30174 2.10823C6.93361 2.06071 7.56698 2.17819 8.14009 2.44922C8.71321 2.72025 9.20651 3.13557 9.57189 3.65469C9.662 3.82096 9.79492 3.95994 9.9568 4.05717C10.1187 4.1544 10.3036 4.20631 10.4923 4.20749C10.681 4.20867 10.8666 4.15909 11.0297 4.0639C11.1927 3.9687 11.3274 3.83139 11.4196 3.66627C11.7842 3.1431 12.2786 2.72427 12.8539 2.45106C13.4292 2.17784 14.0655 2.05969 14.7002 2.10823C15.293 2.10534 15.8792 2.23433 16.4163 2.4859C16.9535 2.73748 17.4283 3.10538 17.8066 3.56311C18.5184 4.43056 19.2553 6.0486 18.7168 8.83412Z" fill="white"/>
</svg>
