<svg width="27" height="26" viewBox="0 0 27 26" fill="none" xmlns="http://www.w3.org/2000/svg">
<path d="M24.9742 2.88988C24.2352 1.98334 23.3072 1.25427 22.2569 0.755177C21.2066 0.256085 20.0602 -0.00060221 18.9003 0.00360835C16.9156 -0.0573207 14.9835 0.655298 13.5013 1.99485C12.0191 0.655298 10.0869 -0.0573207 8.10224 0.00360835C6.94232 -0.00060221 5.79593 0.256085 4.74563 0.755177C3.69533 1.25427 2.76729 1.98334 2.02835 2.88988C0.742032 4.47192 -0.603672 7.33629 0.288515 12.0044C1.7125 19.4589 12.3904 25.5763 12.8412 25.8267C13.0422 25.9404 13.2685 26 13.4986 26C13.7286 26 13.9549 25.9404 14.1559 25.8267C14.6094 25.5708 25.2873 19.4534 26.7086 12.0044C27.6062 7.33629 26.2605 4.47192 24.9742 2.88988ZM24.0644 11.4844C23.0575 16.7546 15.7391 21.6568 13.5013 23.05C10.3482 21.1203 3.86131 16.2756 2.94483 11.4844C2.25241 7.86318 3.19993 5.75972 4.11777 4.63204C4.60314 4.03824 5.21212 3.56072 5.901 3.23372C6.58988 2.90672 7.3416 2.73836 8.10224 2.74071C8.91464 2.67893 9.72897 2.83165 10.4658 3.18399C11.2027 3.53632 11.8369 4.07624 12.3067 4.7511C12.4226 4.96724 12.5935 5.14793 12.8016 5.27432C13.0097 5.40072 13.2475 5.4682 13.4901 5.46974C13.7327 5.47128 13.9713 5.40681 14.181 5.28306C14.3907 5.15932 14.5638 4.98081 14.6823 4.76616C15.1512 4.08604 15.7868 3.54155 16.5264 3.18637C17.2661 2.8312 18.0842 2.67759 18.9003 2.74071C19.6625 2.73694 20.4161 2.90462 21.1067 3.23167C21.7973 3.55872 22.4078 4.03699 22.8942 4.63204C23.8093 5.75972 24.7568 7.86318 24.0644 11.4844Z" fill="white"/>
</svg>
