<svg width="14" height="20" viewBox="0 0 14 20" fill="none" xmlns="http://www.w3.org/2000/svg">
<path fill-rule="evenodd" clip-rule="evenodd" d="M6.66667 0C10.3486 0 13.3333 2.98477 13.3333 6.66667C13.3333 7.77991 13.0612 8.82886 12.5782 9.75184L6.66667 20L0.892105 10.0004C0.32381 9.01905 0 7.88112 0 6.66667C0 2.98477 2.98477 0 6.66667 0ZM6.66667 1.90476C4.03674 1.90476 1.90476 4.03674 1.90476 6.66667C1.90476 7.42291 2.07922 8.14852 2.40936 8.80358L2.56936 9.09581L6.66667 16.1905L10.7929 9.04584C11.2078 8.32945 11.4286 7.51744 11.4286 6.66667C11.4286 4.03674 9.29659 1.90476 6.66667 1.90476ZM6.66667 3.80952C8.24462 3.80952 9.52381 5.08871 9.52381 6.66667C9.52381 8.24462 8.24462 9.52381 6.66667 9.52381C5.08871 9.52381 3.80952 8.24462 3.80952 6.66667C3.80952 5.08871 5.08871 3.80952 6.66667 3.80952ZM6.66667 5.71429C6.14068 5.71429 5.71429 6.14068 5.71429 6.66667C5.71429 7.19265 6.14068 7.61905 6.66667 7.61905C7.19265 7.61905 7.61905 7.19265 7.61905 6.66667C7.61905 6.14068 7.19265 5.71429 6.66667 5.71429Z" fill="white"/>
</svg>
