<svg width="17" height="20" viewBox="0 0 17 20" fill="none" xmlns="http://www.w3.org/2000/svg">
<path d="M13.8428 12.5628C13.3452 12.5649 12.855 12.7057 12.4125 12.9739C11.9701 13.242 11.588 13.6296 11.2977 14.1051L6.15884 11.1348C6.259 10.7652 6.3114 10.3801 6.31427 9.99236C6.3114 9.6045 6.259 9.21939 6.15884 8.84993L11.2977 5.87956C11.7409 6.58657 12.3839 7.0845 13.1112 7.28383C13.8387 7.48316 14.6026 7.37082 15.2659 6.96703C15.9292 6.56323 16.4482 5.89445 16.7296 5.08089C17.0111 4.26734 17.0367 3.36239 16.8016 2.52869C16.5665 1.695 16.0863 0.987245 15.4473 0.532661C14.8082 0.0780878 14.0523 -0.0935166 13.3152 0.0487045C12.5782 0.190937 11.9086 0.637661 11.4266 1.30859C10.9446 1.97951 10.6819 2.83064 10.6857 3.70895C10.688 3.90064 10.7042 4.09174 10.7343 4.28016L5.42056 7.42184C5.12972 7.05959 4.77882 6.7713 4.38951 6.5748C4.00021 6.37831 3.58078 6.27778 3.15714 6.27941C2.31982 6.27941 1.51679 6.67059 0.924701 7.3669C0.332626 8.06325 0 9.00758 0 9.99236C0 10.977 0.332626 11.9215 0.924701 12.6178C1.51679 13.3141 2.31982 13.7053 3.15714 13.7053C3.58078 13.7069 4.00021 13.6063 4.38951 13.4098C4.77882 13.2133 5.12972 12.9251 5.42056 12.5628L10.7343 15.7045C10.7037 15.8967 10.6874 16.0916 10.6857 16.2871C10.6857 17.0215 10.8708 17.7393 11.2177 18.3499C11.5646 18.9604 12.0577 19.4364 12.6347 19.7174C13.2115 19.9984 13.8463 20.0719 14.4587 19.9286C15.0712 19.7854 15.6337 19.4318 16.0753 18.9126C16.5168 18.3932 16.8174 17.7316 16.9393 17.0114C17.0612 16.2913 16.9986 15.5447 16.7596 14.8662C16.5207 14.1878 16.1161 13.6079 15.5968 13.2C15.0776 12.792 14.4673 12.5742 13.8428 12.5742V12.5628ZM13.8428 1.70969C14.179 1.70969 14.5078 1.82695 14.7872 2.04663C15.0668 2.26631 15.2847 2.57856 15.4134 2.94387C15.542 3.30919 15.5758 3.71117 15.5102 4.09898C15.4445 4.4868 15.2827 4.84304 15.0449 5.12264C14.8072 5.40223 14.5043 5.59264 14.1745 5.66979C13.8447 5.74693 13.5029 5.70734 13.1923 5.55602C12.8816 5.4047 12.6161 5.14845 12.4293 4.81967C12.2425 4.49091 12.1428 4.10436 12.1428 3.70895C12.1454 3.17964 12.3253 2.67287 12.6436 2.29858C12.9618 1.9243 13.3928 1.7127 13.8428 1.70969ZM3.15714 11.9916C2.82091 11.9916 2.49223 11.8743 2.21267 11.6546C1.93311 11.4349 1.71521 11.1227 1.58654 10.7574C1.45788 10.3921 1.42421 9.99007 1.48981 9.60233C1.5554 9.21448 1.71731 8.85827 1.95505 8.5786C2.19281 8.29905 2.49571 8.1086 2.82548 8.03149C3.15525 7.95438 3.49707 7.9939 3.8077 8.14528C4.11833 8.29653 4.38383 8.55278 4.57063 8.88157C4.75743 9.21036 4.85713 9.59685 4.85713 9.99236C4.85459 10.5216 4.67466 11.0284 4.3564 11.4027C4.03813 11.7769 3.60722 11.9885 3.15714 11.9916ZM13.8428 18.275C13.5066 18.275 13.1779 18.1576 12.8984 17.938C12.6188 17.7183 12.4009 17.406 12.2722 17.0408C12.1436 16.6755 12.1099 16.2734 12.1755 15.8857C12.241 15.4978 12.403 15.1416 12.6408 14.862C12.8785 14.5824 13.1814 14.392 13.5112 14.3149C13.841 14.2377 14.1827 14.2773 14.4934 14.4286C14.8041 14.5799 15.0695 14.8361 15.2564 15.1649C15.4432 15.4937 15.5428 15.8802 15.5428 16.2757C15.5403 16.805 15.3604 17.3118 15.0421 17.6861C14.7238 18.0603 14.2929 18.2719 13.8428 18.275Z" fill="white"/>
</svg>
