<svg width="17" height="22" viewBox="0 0 17 22" fill="none" xmlns="http://www.w3.org/2000/svg">
<path d="M3.73699 4.4709C3.73699 4.29006 3.87899 4.14503 4.05215 4.14503C4.22706 4.14503 4.36732 4.29185 4.36732 4.4709V10.4387C4.36732 10.6195 4.22532 10.7645 4.05215 10.7645H0.315168C0.141999 10.7663 0 10.6195 0 10.4405V0.70188C0 0.510295 0.0761944 0.334825 0.199144 0.205909L0.200876 0.204118C0.325558 0.0787825 0.493532 0 0.680554 0H3.6885C3.87379 0 4.04523 0.0787824 4.16818 0.207699C4.29113 0.334825 4.36732 0.510295 4.36732 0.703671V1.53089C4.36732 1.71173 4.22532 1.85676 4.05215 1.85676C3.87725 1.85676 3.73699 1.70994 3.73699 1.53089V0.70188C3.73699 0.689346 3.73179 0.676813 3.72313 0.66607C3.71448 0.657117 3.70235 0.651746 3.6885 0.651746H0.680554C0.666701 0.651746 0.654579 0.657117 0.64592 0.66607L0.644189 0.66786C0.63553 0.676813 0.630335 0.689346 0.630335 0.703671V10.1146H3.73699V4.4709ZM3.73526 17.8836L0.0363655 10.5909C-0.0432923 10.4315 0.0155852 10.2363 0.169706 10.1522C0.216461 10.1271 0.26668 10.1146 0.315168 10.1146V10.1128H16.6848C16.8597 10.1128 17 10.2596 17 10.4387C17 10.4512 17 10.4637 16.9983 10.4763C16.91 14.3688 15.064 15.4646 13.5106 16.385C12.6032 16.9239 11.8084 17.3948 11.6595 18.3921L11.6577 18.4011C11.6006 18.7914 11.6318 19.239 11.7512 19.7457C11.8759 20.2739 12.0959 20.8684 12.4162 21.5291C12.4941 21.6902 12.4301 21.8854 12.2742 21.966C12.2292 21.9893 12.1807 22 12.134 22H2.25293C2.07803 22 1.93776 21.8532 1.93776 21.6741C1.93776 21.6115 1.95508 21.5524 1.98625 21.5022L3.73526 17.8836ZM0.836406 10.7663L4.36732 17.7296C4.41235 17.8192 4.41581 17.9284 4.36905 18.0251L2.76205 21.35H11.6352C11.4101 20.8326 11.2456 20.3491 11.14 19.9015C10.9997 19.3071 10.9651 18.7753 11.0343 18.3062L11.0361 18.2954C11.2317 16.9884 12.1495 16.444 13.1972 15.8227C14.5687 15.0098 16.1913 14.0466 16.3593 10.7681H0.836406V10.7663ZM4.08852 18.2059C3.91362 18.2059 3.77335 18.0591 3.77335 17.88C3.77335 17.6992 3.91535 17.5542 4.08852 17.5542H7.53285C7.70775 17.5542 7.84802 17.701 7.84802 17.88C7.84802 18.0609 7.70602 18.2059 7.53285 18.2059H4.08852ZM4.36559 10.4888C4.33961 10.6661 4.17857 10.7896 4.00713 10.7628C3.83569 10.7359 3.71621 10.5694 3.74218 10.3921C3.7924 10.0555 3.87379 9.75112 3.98808 9.48433C4.10757 9.2068 4.26169 8.97225 4.45044 8.78066C5.06346 8.16115 5.84272 8.17547 6.58735 8.18979C6.65315 8.19158 6.71723 8.19158 6.8852 8.19158H13.6319C15.2319 8.18084 17.0052 8.16831 16.9965 10.5192C16.9965 10.6983 16.8563 10.8433 16.6831 10.8433C16.5099 10.8433 16.3697 10.6983 16.3697 10.5192C16.3766 8.82184 14.9358 8.83259 13.6371 8.84154C13.4414 8.84333 13.4466 8.84512 13.3306 8.84512H6.88693L6.57869 8.83975C5.96221 8.82901 5.31629 8.81647 4.89029 9.24799C4.75695 9.38227 4.64959 9.54879 4.563 9.74754C4.47296 9.95524 4.40715 10.2023 4.36559 10.4888ZM2.65468 2C3.14475 2 3.54131 2.41003 3.54131 2.91674C3.54131 3.42346 3.14475 3.83348 2.65468 3.83348C2.16461 3.83348 1.76806 3.42346 1.76806 2.91674C1.76806 2.41003 2.16634 2 2.65468 2ZM3.54131 3.24261C3.36641 3.24261 3.22614 3.09579 3.22614 2.91674C3.22614 2.7359 3.36814 2.59087 3.54131 2.59087H5.66782C5.84272 2.59087 5.98299 2.73769 5.98299 2.91674C5.98299 3.09758 5.84099 3.24261 5.66782 3.24261H3.54131Z" fill="white"/>
</svg>
